<svg xmlns="http://www.w3.org/2000/svg" xmlns:xlink="http://www.w3.org/1999/xlink" version="1.1" width="256" height="256" viewBox="0 0 256 256" xml:space="preserve">

<defs>
</defs>
<g style="stroke: none; stroke-width: 0; stroke-dasharray: none; stroke-linecap: butt; stroke-linejoin: miter; stroke-miterlimit: 10; fill: none; fill-rule: nonzero; opacity: 1;" transform="translate(1.4065934065934016 1.4065934065934016) scale(2.81 2.81)" >
	<path d="M 27.446 75.006 l -0.563 -0.085 C 12.319 72.698 3.668 58.771 0.438 32.342 l -0.299 -2.446 l 2.453 0.233 c 10.407 0.989 20.711 0.103 30.63 -2.632 l 1.053 3.82 c -9.6 2.647 -19.541 3.641 -29.589 2.958 C 7.819 56.77 15.106 68.773 26.917 70.909 c 2.871 -1.338 5.284 -3.286 7.178 -5.799 l 3.164 2.386 c -2.426 3.218 -5.552 5.669 -9.291 7.285 L 27.446 75.006 z" style="stroke: none; stroke-width: 1; stroke-dasharray: none; stroke-linecap: butt; stroke-linejoin: miter; stroke-miterlimit: 10; fill: rgb(226,87,76); fill-rule: nonzero; opacity: 1;" transform=" matrix(1 0 0 1 0 0) " stroke-linecap="round" />
	<path d="M 22.099 47.164 c -0.573 -0.247 -0.994 -0.212 -1.441 -0.201 c -0.426 0.018 -0.808 0.051 -1.159 0.101 c -0.706 0.089 -1.241 0.24 -1.695 0.368 c -0.446 0.147 -0.963 0.296 -1.588 0.61 c -0.315 0.15 -0.647 0.332 -1.005 0.554 c -0.373 0.24 -0.739 0.448 -1.064 0.983 c -0.268 -0.163 -0.46 -0.461 -0.571 -0.765 c -0.114 -0.302 -0.149 -0.618 -0.174 -0.935 c -0.018 -0.629 0.134 -1.237 0.394 -1.8 c 0.518 -1.121 1.577 -2.058 2.884 -2.447 c 1.31 -0.379 2.683 -0.168 3.728 0.462 c 0.524 0.321 0.985 0.735 1.325 1.258 C 22.041 45.866 22.342 46.543 22.099 47.164 z" style="stroke: none; stroke-width: 1; stroke-dasharray: none; stroke-linecap: butt; stroke-linejoin: miter; stroke-miterlimit: 10; fill: rgb(226,87,76); fill-rule: nonzero; opacity: 1;" transform=" matrix(1 0 0 1 0 0) " stroke-linecap="round" />
	<path d="M 33.747 47.071 c -0.446 -0.436 -0.854 -0.545 -1.274 -0.684 c -0.403 -0.125 -0.771 -0.217 -1.114 -0.282 c -0.685 -0.146 -1.225 -0.159 -1.694 -0.183 c -0.472 -0.003 -1.026 -0.015 -1.73 0.079 c -0.352 0.042 -0.73 0.105 -1.146 0.196 c -0.436 0.102 -0.851 0.174 -1.346 0.557 c -0.396 -0.539 -0.276 -1.272 -0.109 -1.848 c 0.195 -0.593 0.537 -1.112 0.963 -1.555 c 0.851 -0.875 2.127 -1.427 3.491 -1.388 c 1.363 0.051 2.623 0.687 3.408 1.64 c 0.394 0.479 0.695 1.028 0.837 1.64 c 0.057 0.312 0.104 0.626 0.07 0.947 C 34.072 46.509 33.963 46.846 33.747 47.071 z" style="stroke: none; stroke-width: 1; stroke-dasharray: none; stroke-linecap: butt; stroke-linejoin: miter; stroke-miterlimit: 10; fill: rgb(226,87,76); fill-rule: nonzero; opacity: 1;" transform=" matrix(1 0 0 1 0 0) " stroke-linecap="round" />
	<path d="M 32.843 59.991 c -0.575 -0.701 -1.243 -1.01 -1.922 -1.323 c -0.673 -0.296 -1.347 -0.521 -2.011 -0.686 c -1.328 -0.349 -2.588 -0.407 -3.753 -0.279 c -1.158 0.177 -2.36 0.552 -3.556 1.226 c -0.599 0.328 -1.194 0.717 -1.77 1.173 c -0.578 0.474 -1.147 0.941 -1.528 1.765 c -0.506 -0.807 -0.392 -1.903 -0.129 -2.788 c 0.278 -0.916 0.762 -1.752 1.373 -2.492 c 1.218 -1.477 3.061 -2.533 5.103 -2.812 c 2.046 -0.243 4.095 0.31 5.647 1.43 c 0.778 0.56 1.458 1.247 1.959 2.061 C 32.736 58.053 33.125 59.083 32.843 59.991 z" style="stroke: none; stroke-width: 1; stroke-dasharray: none; stroke-linecap: butt; stroke-linejoin: miter; stroke-miterlimit: 10; fill: rgb(226,87,76); fill-rule: nonzero; opacity: 1;" transform=" matrix(1 0 0 1 0 0) " stroke-linecap="round" />
	<path d="M 59.338 38.843 c -0.433 -0.525 -0.872 -0.728 -1.332 -0.952 c -0.444 -0.211 -0.864 -0.383 -1.268 -0.521 c -0.806 -0.287 -1.507 -0.417 -2.131 -0.49 c -0.624 -0.049 -1.318 -0.074 -2.152 0.054 c -0.416 0.056 -0.857 0.144 -1.328 0.269 c -0.49 0.135 -0.956 0.255 -1.471 0.704 c -0.181 -0.292 -0.228 -0.677 -0.197 -1.034 c 0.031 -0.355 0.143 -0.692 0.268 -1.022 c 0.278 -0.644 0.714 -1.195 1.238 -1.654 c 1.043 -0.914 2.539 -1.411 4.051 -1.258 c 1.511 0.167 2.848 0.952 3.693 2.032 c 0.422 0.546 0.745 1.162 0.902 1.84 C 59.746 37.469 59.802 38.284 59.338 38.843 z" style="stroke: none; stroke-width: 1; stroke-dasharray: none; stroke-linecap: butt; stroke-linejoin: miter; stroke-miterlimit: 10; fill: rgb(234,194,88); fill-rule: nonzero; opacity: 1;" transform=" matrix(1 0 0 1 0 0) " stroke-linecap="round" />
	<path d="M 71.98 43.942 c -0.216 -0.646 -0.56 -0.985 -0.913 -1.349 c -0.344 -0.345 -0.681 -0.643 -1.014 -0.901 c -0.657 -0.53 -1.272 -0.858 -1.839 -1.125 c -0.578 -0.245 -1.247 -0.484 -2.088 -0.641 c -0.418 -0.083 -0.867 -0.146 -1.357 -0.187 c -0.511 -0.038 -0.991 -0.084 -1.632 0.15 c -0.065 -0.337 0.027 -0.714 0.18 -1.035 c 0.152 -0.322 0.371 -0.597 0.6 -0.864 c 0.477 -0.508 1.066 -0.879 1.706 -1.139 c 1.274 -0.51 2.827 -0.517 4.215 0.102 c 1.382 0.632 2.425 1.811 2.867 3.125 c 0.222 0.659 0.322 1.354 0.239 2.05 c -0.056 0.348 -0.128 0.695 -0.279 1.017 C 72.515 43.471 72.281 43.78 71.98 43.942 z" style="stroke: none; stroke-width: 1; stroke-dasharray: none; stroke-linecap: butt; stroke-linejoin: miter; stroke-miterlimit: 10; fill: rgb(234,194,88); fill-rule: nonzero; opacity: 1;" transform=" matrix(1 0 0 1 0 0) " stroke-linecap="round" />
	<path d="M 66.827 51.603 c 0.074 0.521 -0.083 1.072 -0.304 1.574 c -0.23 0.495 -0.545 0.952 -0.901 1.361 c -0.718 0.82 -1.608 1.47 -2.585 1.965 c -1.948 0.992 -4.339 1.279 -6.601 0.695 c -2.251 -0.626 -4.176 -2.075 -5.364 -3.912 c -0.596 -0.919 -1.04 -1.929 -1.249 -2.999 c -0.102 -0.533 -0.144 -1.087 -0.094 -1.631 c 0.062 -0.546 0.204 -1.102 0.531 -1.515 c 0.238 1.004 0.778 1.683 1.343 2.354 c 0.566 0.655 1.18 1.235 1.82 1.745 c 1.273 1.038 2.655 1.727 4.043 2.132 c 1.403 0.352 2.946 0.449 4.569 0.191 c 0.81 -0.119 1.633 -0.313 2.451 -0.596 C 65.312 52.67 66.12 52.352 66.827 51.603 z" style="stroke: none; stroke-width: 1; stroke-dasharray: none; stroke-linecap: butt; stroke-linejoin: miter; stroke-miterlimit: 10; fill: rgb(234,194,88); fill-rule: nonzero; opacity: 1;" transform=" matrix(1 0 0 1 0 0) " stroke-linecap="round" />
	<path d="M 51.906 74.284 l -0.488 -0.294 c -14.617 -8.817 -17.71 -27.621 -9.454 -57.488 l 0.656 -2.375 l 2.179 1.151 c 13.357 7.057 27.783 10.941 42.878 11.545 l 2.462 0.099 l -0.625 2.384 c -7.857 29.974 -19.973 44.684 -37.04 44.969 L 51.906 74.284 z M 45.15 19.913 c -6.841 26.194 -4.274 42.698 7.829 50.384 c 14.324 -0.57 24.831 -13.554 32.067 -39.642 C 71.075 29.772 57.676 26.165 45.15 19.913 z" style="stroke: none; stroke-width: 1; stroke-dasharray: none; stroke-linecap: butt; stroke-linejoin: miter; stroke-miterlimit: 10; fill: rgb(234,194,88); fill-rule: nonzero; opacity: 1;" transform=" matrix(1 0 0 1 0 0) " stroke-linecap="round" />
</g>
</svg>